<svg xmlns="http://www.w3.org/2000/svg" width="960" height="320" viewBox="0 0 960 320" role="img" aria-labelledby="title desc">
  <title id="title">Aichongshe logo lockup</title>
  <desc id="desc">Aichongshe warm coffee paw badge with Chinese wordmark.</desc>
  <defs>
    <linearGradient id="badgeGradient" x1="56" y1="56" x2="264" y2="264" gradientUnits="userSpaceOnUse">
      <stop offset="0" stop-color="#C97B4A"/>
      <stop offset="1" stop-color="#8A4A1F"/>
    </linearGradient>
    <clipPath id="badgeClip">
      <circle cx="160" cy="160" r="104"/>
    </clipPath>
    <linearGradient id="topHighlight" x1="160" y1="61" x2="160" y2="144" gradientUnits="userSpaceOnUse">
      <stop offset="0" stop-color="#FFFFFF" stop-opacity="0.36"/>
      <stop offset="1" stop-color="#FFFFFF" stop-opacity="0"/>
    </linearGradient>
  </defs>
  <circle cx="160" cy="160" r="104" fill="url(#badgeGradient)"/>
  <ellipse cx="160" cy="86" rx="79" ry="32" fill="url(#topHighlight)" clip-path="url(#badgeClip)"/>
  <g fill="#FFFFFF" transform="translate(89.5 89.5) scale(5.875)">
    <ellipse cx="6" cy="9" rx="2.2" ry="3"/>
    <ellipse cx="10.5" cy="6" rx="2" ry="2.8"/>
    <ellipse cx="15" cy="6" rx="2" ry="2.8"/>
    <ellipse cx="19" cy="9" rx="2.2" ry="3"/>
    <path d="M12.5 10c-3.2 0-5.8 2.6-5.8 5.4 0 2 1.6 3.6 3.6 3.6 1.1 0 2-0.5 2.2-0.5 0.2 0 1.1 0.5 2.2 0.5 2 0 3.6-1.6 3.6-3.6 0-2.8-2.6-5.4-5.8-5.4z"/>
  </g>
  <text x="312" y="154" fill="#231710" font-family="Baloo 2, ZCOOL KuaiLe, Noto Sans SC, PingFang SC, Helvetica Neue, Arial, sans-serif" font-size="88" font-weight="800" letter-spacing="4">爱宠社</text>
  <text x="318" y="208" fill="#63463A" font-family="Noto Sans SC, PingFang SC, Helvetica Neue, Arial, sans-serif" font-size="27" font-weight="500" letter-spacing="2">和毛孩子一起，分享每一天</text>
</svg>
