<svg xmlns="http://www.w3.org/2000/svg" width="1024" height="1024" viewBox="0 0 1024 1024" role="img" aria-labelledby="title desc">
  <title id="title">Aichongshe logo icon</title>
  <desc id="desc">Warm coffee gradient circle with a white paw mark.</desc>
  <defs>
    <linearGradient id="badgeGradient" x1="232" y1="232" x2="792" y2="792" gradientUnits="userSpaceOnUse">
      <stop offset="0" stop-color="#C97B4A"/>
      <stop offset="1" stop-color="#8A4A1F"/>
    </linearGradient>
    <clipPath id="badgeClip">
      <circle cx="512" cy="512" r="330"/>
    </clipPath>
    <linearGradient id="topHighlight" x1="512" y1="198" x2="512" y2="460" gradientUnits="userSpaceOnUse">
      <stop offset="0" stop-color="#FFFFFF" stop-opacity="0.36"/>
      <stop offset="1" stop-color="#FFFFFF" stop-opacity="0"/>
    </linearGradient>
  </defs>
  <circle cx="512" cy="512" r="330" fill="url(#badgeGradient)"/>
  <ellipse cx="512" cy="278" rx="250" ry="102" fill="url(#topHighlight)" clip-path="url(#badgeClip)"/>
  <g fill="#FFFFFF" transform="translate(232 232) scale(23.333333)">
    <ellipse cx="6" cy="9" rx="2.2" ry="3"/>
    <ellipse cx="10.5" cy="6" rx="2" ry="2.8"/>
    <ellipse cx="15" cy="6" rx="2" ry="2.8"/>
    <ellipse cx="19" cy="9" rx="2.2" ry="3"/>
    <path d="M12.5 10c-3.2 0-5.8 2.6-5.8 5.4 0 2 1.6 3.6 3.6 3.6 1.1 0 2-0.5 2.2-0.5 0.2 0 1.1 0.5 2.2 0.5 2 0 3.6-1.6 3.6-3.6 0-2.8-2.6-5.4-5.8-5.4z"/>
  </g>
</svg>
