<?xml version="1.0" encoding="UTF-8" standalone="no"?>
<!DOCTYPE svg PUBLIC "-//W3C//DTD SVG 1.1//EN" "http://www.w3.org/Graphics/SVG/1.1/DTD/svg11.dtd">
<svg t="1768541720901" class="icon" viewBox="0 0 1024 1024" version="1.1" xmlns="http://www.w3.org/2000/svg" p-id="13117" width="200" height="200"><path d="M489.045333 11.413333l2.048-0.085333a32 32 0 1 1 2.645334 63.957333l-2.048 0.085334a32 32 0 0 1-2.645334-63.957334z m112.426667 7.808l2.090667 0.384a32 32 0 0 1-11.712 62.933334l-2.112-0.405334a32 32 0 1 1 11.733333-62.912z m-226.794667 10.56l2.133334-0.597333a32 32 0 0 1 17.216 61.632l-2.133334 0.597333a32 32 0 0 1-17.216-61.653333z m340.330667 24.661334l1.92 0.853333a32 32 0 1 1-26.197333 58.410667l-1.92-0.853334a32 32 0 0 1 26.197333-58.410666z m-449.066667 20.352l1.856-1.045334a32 32 0 0 1 31.146667 55.914667l-1.877333 1.066667a32 32 0 1 1-31.146667-55.936zM815.082667 113.92l0.682666 0.533333 1.088 0.832a32 32 0 0 1-39.018666 50.730667l-0.96-0.746667-0.704-0.533333a32 32 0 1 1 38.912-50.816zM170.794667 143.829333l1.6-1.493333a32 32 0 1 1 43.306666 47.146667l-1.6 1.493333a32 32 0 0 1-43.306666-47.146667z m603.946666 632.426667q109.354667-109.333333 109.354667-263.978667 0-154.645333-109.354667-263.978666-109.333333-109.354667-263.978666-109.354667-154.645333 0-263.978667 109.354667-109.354667 109.333333-109.354667 263.978666 0 154.645333 109.354667 263.978667 109.333333 109.354667 263.978667 109.354667 154.645333 0 263.978666-109.354667z m125.226667-579.946667l1.365333 1.685334a32 32 0 0 1-49.770666 40.234666l-1.365334-1.706666a32 32 0 0 1 49.770667-40.213334z m-170.474667 97.237334q90.602667 90.602667 90.602667 218.730666t-90.602667 218.730667q-90.602667 90.602667-218.730666 90.602667t-218.730667-90.602667Q201.429333 640.426667 201.429333 512.277333t90.602667-218.730666q90.602667-90.602667 218.730667-90.602667t218.730666 90.602667zM94.037333 233.6l1.216-1.792a32 32 0 1 1 53.12 35.690667l-1.216 1.792a32 32 0 0 1-53.12-35.690667z m868.522667 61.397333l0.896 1.92a32 32 0 0 1-57.728 27.605334l-0.917333-1.92a32 32 0 1 1 57.749333-27.605334zM41.066667 336.981333l0.789333-2.112a32 32 0 1 1 59.925333 22.506667l-0.789333 2.133333a32 32 0 0 1-59.925333-22.528z m605.44 311.061334q56.256-56.234667 56.256-135.765334 0-79.530667-56.234667-135.765333-56.234667-56.234667-135.765333-56.234667-79.530667 0-135.765334 56.234667-56.234667 56.234667-56.234666 135.765333 0 79.530667 56.234666 135.765334 56.234667 56.234667 135.765334 56.234666 79.530667 0 135.765333-56.234666zM1000.96 407.168l0.469333 2.133333a32 32 0 1 1-62.613333 13.269334l-0.448-2.133334a32 32 0 1 1 62.592-13.269333z m-414.762667 29.696q31.253333 31.232 31.253334 75.413333t-31.253334 75.434667q-31.232 31.232-75.413333 31.232t-75.434667-31.232q-31.232-31.253333-31.232-75.434667 0-44.16 31.232-75.413333 31.253333-31.253333 75.434667-31.253333 44.16 0 75.413333 31.253333zM13.034667 452.266667l0.256-2.090667a32 32 0 0 1 63.530666 7.786667l-0.256 2.090666A32 32 0 1 1 13.013333 452.266667z m999.04 60.074666v2.026667a32 32 0 1 1-64-0.149333v-2.005334a32 32 0 0 1 64 0.128zM12.138667 564.117333l-0.213334-2.090666a32 32 0 1 1 63.658667-6.485334l0.213333 2.090667a32 32 0 0 1-63.658666 6.485333z m986.965333 61.610667l-0.490667 2.133333a32 32 0 1 1-62.293333-14.634666l0.490667-2.133334a32 32 0 0 1 62.293333 14.634667zM38.058667 679.296l-0.725334-2.112a32 32 0 1 1 60.373334-21.184l0.746666 2.133333a32 32 0 1 1-60.373333 21.162667z m920.832 57.749333l-0.96 1.898667a32 32 0 1 1-57.152-28.8l0.96-1.92a32 32 0 1 1 57.152 28.8zM89.386667 783.936l-1.173334-1.813333a32 32 0 0 1 53.866667-34.56l1.173333 1.792a32 32 0 1 1-53.866666 34.56z m805.141333 50.901333l-1.408 1.664a32 32 0 0 1-48.896-41.28l1.408-1.664a32 32 0 1 1 48.896 41.28zM164.565333 874.88l-1.578666-1.514667a32 32 0 0 1 44.309333-46.186666l1.557333 1.493333a32 32 0 1 1-44.288 46.208z m643.776 40.853333l-1.749333 1.28a32 32 0 1 1-37.888-51.584l1.749333-1.28a32 32 0 1 1 37.888 51.584z m-549.696 29.866667l-1.856-1.088a32 32 0 0 1 32.298667-55.253333l1.856 1.066666a32 32 0 1 1-32.298667 55.253334z m448.810667 27.797333l-1.92 0.810667a32 32 0 0 1-25.002667-58.922667l1.92-0.810666a32 32 0 1 1 25.002667 58.922666z m-341.12 18.944l-2.133333-0.64a32 32 0 0 1 18.581333-61.248l2.133333 0.64a32 32 0 1 1-18.56 61.248z m226.837333 14.421334l-2.112 0.362666a32 32 0 1 1-10.389333-63.146666l2.133333-0.362667a32 32 0 1 1 10.368 63.146667z m-112.170666 5.952l-2.048-0.128a32 32 0 0 1 3.925333-63.893334l2.048 0.128a32 32 0 1 1-3.925333 63.893334z" p-id="13118" fill="#ffffff"></path></svg>
